<mxfile host="app.diagrams.net" agent="Mozilla/5.0 (Windows NT 10.0; Win64; x64; rv:136.0) Gecko/20100101 Firefox/136.0" version="26.0.16">
  <diagram name="StrÃ¡nka-1" id="Abb5fmweHmfT5TIP11PK">
    <mxGraphModel dx="1792" dy="1106" grid="1" gridSize="10" guides="1" tooltips="1" connect="1" arrows="1" fold="1" page="1" pageScale="1" pageWidth="827" pageHeight="1169" math="0" shadow="0">
      <root>
        <mxCell id="0" />
        <mxCell id="1" parent="0" />
        <mxCell id="cVGpwDBMJeFpc9WZTBXI-2" value="GitHub" style="rounded=1;whiteSpace=wrap;html=1;fillColor=#fff2cc;strokeColor=#d6b656;" vertex="1" parent="1">
          <mxGeometry x="370" y="100" width="310" height="160" as="geometry" />
        </mxCell>
        <mxCell id="cVGpwDBMJeFpc9WZTBXI-3" value="&lt;div&gt;Home&lt;/div&gt;" style="rounded=1;whiteSpace=wrap;html=1;fillColor=#dae8fc;strokeColor=#6c8ebf;" vertex="1" parent="1">
          <mxGeometry x="40" y="360" width="650" height="550" as="geometry" />
        </mxCell>
        <mxCell id="cVGpwDBMJeFpc9WZTBXI-4" value="Fiber Connection" style="html=1;verticalLabelPosition=bottom;verticalAlign=top;outlineConnect=0;shadow=0;dashed=0;shape=mxgraph.rack.hpe_aruba.switches.fibre_qsfp;" vertex="1" parent="1">
          <mxGeometry x="110" y="420" width="80" height="50" as="geometry" />
        </mxCell>
        <mxCell id="cVGpwDBMJeFpc9WZTBXI-16" style="edgeStyle=orthogonalEdgeStyle;rounded=0;orthogonalLoop=1;jettySize=auto;html=1;exitX=0.5;exitY=1;exitDx=0;exitDy=0;" edge="1" parent="1" source="cVGpwDBMJeFpc9WZTBXI-5" target="cVGpwDBMJeFpc9WZTBXI-4">
          <mxGeometry relative="1" as="geometry" />
        </mxCell>
        <mxCell id="cVGpwDBMJeFpc9WZTBXI-17" value="Public IP" style="edgeLabel;html=1;align=center;verticalAlign=middle;resizable=0;points=[];" vertex="1" connectable="0" parent="cVGpwDBMJeFpc9WZTBXI-16">
          <mxGeometry x="0.7006" y="2" relative="1" as="geometry">
            <mxPoint as="offset" />
          </mxGeometry>
        </mxCell>
        <mxCell id="cVGpwDBMJeFpc9WZTBXI-5" value="Internet" style="image;aspect=fixed;perimeter=ellipsePerimeter;html=1;align=center;shadow=0;dashed=0;spacingTop=3;image=img/lib/active_directory/internet_cloud.svg;" vertex="1" parent="1">
          <mxGeometry x="40" y="110" width="253.97" height="160" as="geometry" />
        </mxCell>
        <mxCell id="cVGpwDBMJeFpc9WZTBXI-19" style="edgeStyle=orthogonalEdgeStyle;rounded=0;orthogonalLoop=1;jettySize=auto;html=1;" edge="1" parent="1" source="cVGpwDBMJeFpc9WZTBXI-6" target="cVGpwDBMJeFpc9WZTBXI-7">
          <mxGeometry relative="1" as="geometry" />
        </mxCell>
        <mxCell id="cVGpwDBMJeFpc9WZTBXI-6" value="Mikrotik Router" style="image;points=[];aspect=fixed;html=1;align=center;shadow=0;dashed=0;image=img/lib/allied_telesis/security/Router_VPN.svg;" vertex="1" parent="1">
          <mxGeometry x="100" y="520" width="118.36" height="84" as="geometry" />
        </mxCell>
        <mxCell id="cVGpwDBMJeFpc9WZTBXI-20" style="edgeStyle=orthogonalEdgeStyle;rounded=0;orthogonalLoop=1;jettySize=auto;html=1;exitX=1;exitY=0.5;exitDx=0;exitDy=0;" edge="1" parent="1" source="cVGpwDBMJeFpc9WZTBXI-7" target="cVGpwDBMJeFpc9WZTBXI-8">
          <mxGeometry relative="1" as="geometry" />
        </mxCell>
        <mxCell id="cVGpwDBMJeFpc9WZTBXI-7" value="WIndows Server" style="image;aspect=fixed;perimeter=ellipsePerimeter;html=1;align=center;shadow=0;dashed=0;spacingTop=3;image=img/lib/active_directory/generic_server.svg;" vertex="1" parent="1">
          <mxGeometry x="125.58" y="690" width="67.2" height="120" as="geometry" />
        </mxCell>
        <mxCell id="cVGpwDBMJeFpc9WZTBXI-21" style="edgeStyle=orthogonalEdgeStyle;rounded=0;orthogonalLoop=1;jettySize=auto;html=1;entryX=0.5;entryY=1;entryDx=0;entryDy=0;" edge="1" parent="1" source="cVGpwDBMJeFpc9WZTBXI-8" target="cVGpwDBMJeFpc9WZTBXI-9">
          <mxGeometry relative="1" as="geometry" />
        </mxCell>
        <mxCell id="cVGpwDBMJeFpc9WZTBXI-8" value="" style="pointerEvents=1;shadow=0;dashed=0;html=1;strokeColor=none;fillColor=#4495D1;labelPosition=center;verticalLabelPosition=bottom;verticalAlign=top;align=center;outlineConnect=0;shape=mxgraph.veeam.hyper_v_vmware_host;" vertex="1" parent="1">
          <mxGeometry x="490" y="740" width="108" height="104" as="geometry" />
        </mxCell>
        <mxCell id="cVGpwDBMJeFpc9WZTBXI-9" value="Ubuntu" style="rounded=1;whiteSpace=wrap;html=1;" vertex="1" parent="1">
          <mxGeometry x="430" y="390" width="220" height="290" as="geometry" />
        </mxCell>
        <mxCell id="cVGpwDBMJeFpc9WZTBXI-10" value="GitHub Actions Runner" style="rounded=1;whiteSpace=wrap;html=1;" vertex="1" parent="1">
          <mxGeometry x="440" y="415" width="190" height="35" as="geometry" />
        </mxCell>
        <mxCell id="cVGpwDBMJeFpc9WZTBXI-11" value="Web Server" style="rounded=1;whiteSpace=wrap;html=1;" vertex="1" parent="1">
          <mxGeometry x="440" y="460" width="190" height="40" as="geometry" />
        </mxCell>
        <mxCell id="cVGpwDBMJeFpc9WZTBXI-12" value="" style="shadow=0;dashed=0;html=1;strokeColor=none;fillColor=#4495D1;labelPosition=center;verticalLabelPosition=bottom;verticalAlign=top;align=center;outlineConnect=0;shape=mxgraph.veeam.vm_linux;" vertex="1" parent="1">
          <mxGeometry x="630" y="660" width="57.2" height="55.2" as="geometry" />
        </mxCell>
        <mxCell id="cVGpwDBMJeFpc9WZTBXI-13" value="MicroK8s" style="rounded=1;whiteSpace=wrap;html=1;" vertex="1" parent="1">
          <mxGeometry x="440" y="555" width="190" height="35" as="geometry" />
        </mxCell>
        <mxCell id="cVGpwDBMJeFpc9WZTBXI-14" value="Grafana" style="rounded=1;whiteSpace=wrap;html=1;" vertex="1" parent="1">
          <mxGeometry x="440" y="600" width="190" height="40" as="geometry" />
        </mxCell>
        <mxCell id="cVGpwDBMJeFpc9WZTBXI-15" style="edgeStyle=orthogonalEdgeStyle;rounded=0;orthogonalLoop=1;jettySize=auto;html=1;exitX=0.5;exitY=1;exitDx=0;exitDy=0;entryX=0.447;entryY=0.143;entryDx=0;entryDy=0;entryPerimeter=0;" edge="1" parent="1" source="cVGpwDBMJeFpc9WZTBXI-2" target="cVGpwDBMJeFpc9WZTBXI-10">
          <mxGeometry relative="1" as="geometry" />
        </mxCell>
        <mxCell id="cVGpwDBMJeFpc9WZTBXI-18" style="edgeStyle=orthogonalEdgeStyle;rounded=0;orthogonalLoop=1;jettySize=auto;html=1;entryX=0.422;entryY=-0.036;entryDx=0;entryDy=0;entryPerimeter=0;" edge="1" parent="1" source="cVGpwDBMJeFpc9WZTBXI-4" target="cVGpwDBMJeFpc9WZTBXI-6">
          <mxGeometry relative="1" as="geometry" />
        </mxCell>
        <mxCell id="cVGpwDBMJeFpc9WZTBXI-22" value="&lt;div&gt;Snapshot backups&lt;/div&gt;" style="outlineConnect=0;dashed=0;verticalLabelPosition=bottom;verticalAlign=top;align=center;html=1;shape=mxgraph.aws3.snapshot;fillColor=#E05243;gradientColor=none;" vertex="1" parent="1">
          <mxGeometry x="414" y="800" width="60" height="73.5" as="geometry" />
        </mxCell>
      </root>
    </mxGraphModel>
  </diagram>
</mxfile>
